# xmcd CD database file
#
# Track frame offsets:
#	150
#	27105
#	56080
#	79525
#	96077
#	119342
#	139300
#
# Disc length: 2152 seconds
#
# Revision: 0
# Processed by: cddbd v1.5.2PL0 Copyright (c) Steve Scherf et al.
# Submitted via: CDex 1.70beta2
#
DISCID=56086607
DTITLE=Narada Michael Walden - Dance Of Life
DYEAR=1979
DGENRE=Rhythmic Soul
TTITLE0=You're So Good
TTITLE1=I Shoulda Loved Ya 
TTITLE2=Lovin' You Madly
TTITLE3=Crazy For You
TTITLE4=Tonight I'm Alright
TTITLE5=Why Did You Turn Me On
TTITLE6=Carry On
EXTD=YEAR: 1979
EXTT0=
EXTT1=
EXTT2=
EXTT3=
EXTT4=
EXTT5=
EXTT6=
PLAYORDER=
